<svg width="26" height="26" viewBox="0 0 26 26" fill="none" xmlns="http://www.w3.org/2000/svg">
<path d="M14.9583 13L25.0833 2.87504C25.3109 2.60934 25.4298 2.26757 25.4163 1.91802C25.4028 1.56847 25.2579 1.23689 25.0105 0.989533C24.7631 0.74218 24.4316 0.597273 24.082 0.583771C23.7325 0.57027 23.3907 0.689168 23.125 0.916704L13 11.0417L2.875 0.902815C2.6093 0.675279 2.26753 0.556382 1.91798 0.569883C1.56843 0.583385 1.23685 0.728291 0.989493 0.975644C0.74214 1.223 0.597233 1.55458 0.583731 1.90413C0.57023 2.25368 0.689128 2.59545 0.916664 2.86115L11.0417 13L0.902775 23.125C0.757384 23.2495 0.6393 23.4028 0.555934 23.5751C0.472569 23.7474 0.425721 23.9351 0.418332 24.1264C0.410944 24.3176 0.443175 24.5084 0.513 24.6866C0.582826 24.8648 0.68874 25.0267 0.824094 25.1621C0.959448 25.2974 1.12132 25.4033 1.29955 25.4731C1.47778 25.543 1.66852 25.5752 1.85979 25.5678C2.05107 25.5604 2.23875 25.5136 2.41107 25.4302C2.58338 25.3468 2.7366 25.2288 2.86111 25.0834L13 14.9584L23.125 25.0834C23.3907 25.3109 23.7325 25.4298 24.082 25.4163C24.4316 25.4028 24.7631 25.2579 25.0105 25.0105C25.2579 24.7632 25.4028 24.4316 25.4163 24.0821C25.4298 23.7325 25.3109 23.3907 25.0833 23.125L14.9583 13Z" fill="#487996"/>
</svg>
