<svg aria-hidden="true" style="position:absolute;width:0;height:0" xmlns="http://www.w3.org/2000/svg" overflow="hidden"><defs><symbol id="icon-ic_round-call" viewBox="0 0 32 32"><path fill="var(--color1, #008cef)" d="M25.64 20.347l-3.387-.387a2.647 2.647 0 00-2.187.76l-2.453 2.453a20.062 20.062 0 01-8.787-8.787l2.467-2.467a2.656 2.656 0 00.76-2.187l-.387-3.36c-.076-.65-.388-1.25-.877-1.686s-1.121-.675-1.776-.674H6.706c-1.507 0-2.76 1.253-2.667 2.76.707 11.387 9.813 20.48 21.187 21.187 1.507.093 2.76-1.16 2.76-2.666v-2.307c.013-1.347-1-2.48-2.347-2.64z"/></symbol><symbol id="icon-burger-menu" viewBox="0 0 32 32"><path fill="var(--color2, #487996)" d="M32 9a1 1 0 01-1 1H1a1 1 0 010-2h30a1 1 0 011 1zm0 16a1 1 0 01-1 1H1a1 1 0 010-2h30a1 1 0 011 1zm0-8.008a.992.992 0 01-.992.992H.992a.992.992 0 110-1.984h30.016c.548 0 .992.444.992.992z"/></symbol><symbol id="icon-Group-1" viewBox="0 0 22 32"><path fill="var(--color1, #008cef)" d="M11.034 0a1.102 1.102 0 00-1.103 1.103v26.026l-6.943-6.945a1.105 1.105 0 10-1.562 1.562l8.828 8.828a1.1 1.1 0 001.562 0l8.828-8.828a1.11 1.11 0 00.324-.781 1.107 1.107 0 00-1.886-.781l-6.943 6.945V1.103A1.102 1.102 0 0011.036 0z"/></symbol><symbol id="icon-simple-line-icons_paper-clip" viewBox="0 0 35 32"><path fill="var(--color3, #cdcdcd)" d="M6.3 32c-1.489 0-2.811-.559-3.967-1.677C1.111 29.14.5 27.705.5 26.017s.611-3.124 1.833-4.306L21.5 2.034c.978-.968 2.106-1.591 3.383-1.871s2.572-.204 3.883.226 2.522 1.172 3.633 2.226c.356.366.683.769.983 1.21s.544.903.733 1.387a8.796 8.796 0 01.583 3.145c-.044 2.28-.844 4.183-2.4 5.71l-14.5 14.903c-.2.215-.444.328-.733.339s-.539-.081-.75-.274a1 1 0 01-.333-.726c-.011-.29.083-.543.283-.758l14.5-14.903c1.178-1.161 1.778-2.602 1.8-4.323s-.544-3.129-1.7-4.226c-.711-.71-1.5-1.247-2.367-1.613s-1.8-.484-2.8-.355c-1 .129-1.889.57-2.667 1.323L3.864 23.131c-.822.796-1.233 1.753-1.233 2.871s.411 2.075 1.233 2.871c.378.366.789.64 1.233.823s.911.253 1.4.21c.978-.043 1.889-.484 2.733-1.323l15.233-15.677a4.621 4.621 0 00.634-.758c.111-.161.2-.333.267-.516s.111-.366.133-.548-.011-.371-.1-.565a1.821 1.821 0 00-.4-.548c-.422-.43-.833-.624-1.233-.581-.422.043-.9.312-1.433.806L10.864 22.002c-.133.129-.289.22-.467.274s-.361.059-.55.016a.997.997 0 01-.483-.258c-.222-.194-.333-.43-.333-.71s.1-.527.3-.742L20.798 8.743c.911-.86 1.833-1.333 2.767-1.419 1.067-.086 2.044.301 2.933 1.161.844.796 1.217 1.731 1.117 2.806s-.639 2.086-1.617 3.032l-15.233 15.71c-1.244 1.204-2.633 1.849-4.167 1.935-.044 0-.094.005-.15.016s-.106.016-.15.016z"/></symbol><symbol id="icon-Vector" viewBox="0 0 32 32"><path fill="var(--color2, #487996)" d="M18.41 16L30.872 3.539a1.713 1.713 0 00-.089-2.321 1.708 1.708 0 00-2.321-.089L16 13.591 3.538 1.112a1.713 1.713 0 00-2.321.089 1.708 1.708 0 00-.089 2.321L13.59 16.001 1.111 28.463a1.713 1.713 0 00-.596 1.233A1.708 1.708 0 001.6 31.353a1.71 1.71 0 001.923-.479l12.479-12.462 12.462 12.462a1.713 1.713 0 002.321-.089 1.712 1.712 0 00.089-2.321L18.412 16.002z"/></symbol></defs></svg>