<svg aria-hidden="true" style="position: absolute; width: 0; height: 0; overflow: hidden;" version="1.1" xmlns="http://www.w3.org/2000/svg" xmlns:xlink="http://www.w3.org/1999/xlink">
<defs>
<symbol id="icon-Line-5" viewBox="0 0 8960 32">
<path fill="#fff" style="fill: var(--color2, #fff)" d="M32 0l-32 18 10.227 3.788 15.773-14.788-11.998 16.186 0.010 0.004-0.012-0.004v8.814l5.735-6.691 7.265 2.691 5-28z"></path>
</symbol>
<symbol id="icon-Polygon-3-2" viewBox="0 0 48 32">
<path d="M21.554 2.898c1.278-1.515 3.613-1.515 4.891 0l19.44 23.038c1.756 2.081 0.277 5.264-2.445 5.264h-38.88c-2.722 0-4.201-3.183-2.446-5.264l19.44-23.038z"></path>
</symbol>
<symbol id="icon-Polygon-3-1" viewBox="0 0 48 32">
<path d="M26.446 29.102c-1.278 1.515-3.613 1.515-4.891 0l-19.44-23.038c-1.756-2.081-0.277-5.264 2.446-5.264h38.88c2.722 0 4.201 3.183 2.445 5.264l-19.44 23.038z"></path>
</symbol>
<symbol id="icon-simple-line-icons_paper-clip-1" viewBox="0 0 35 32">
<path fill="#cdcdcd" style="fill: var(--color1, #cdcdcd)" d="M6.3 32c-1.489 0-2.811-0.559-3.967-1.677-1.222-1.183-1.833-2.618-1.833-4.306s0.611-3.124 1.833-4.307l19.167-19.677c0.978-0.968 2.106-1.591 3.383-1.871s2.572-0.204 3.883 0.226c1.311 0.43 2.522 1.172 3.633 2.226 0.356 0.366 0.683 0.769 0.983 1.21s0.544 0.903 0.733 1.387c0.189 0.484 0.333 0.995 0.433 1.532s0.15 1.075 0.15 1.613c-0.044 2.28-0.844 4.183-2.4 5.71l-14.5 14.903c-0.2 0.215-0.444 0.328-0.733 0.339s-0.539-0.081-0.75-0.274c-0.211-0.193-0.322-0.435-0.333-0.726s0.083-0.543 0.283-0.758l14.5-14.903c1.178-1.161 1.778-2.602 1.8-4.323s-0.544-3.129-1.7-4.226c-0.711-0.71-1.5-1.247-2.367-1.613s-1.8-0.484-2.8-0.355c-1 0.129-1.889 0.57-2.667 1.323l-19.167 19.677c-0.822 0.796-1.233 1.753-1.233 2.871s0.411 2.075 1.233 2.871c0.378 0.366 0.789 0.64 1.233 0.823s0.911 0.253 1.4 0.21c0.978-0.043 1.889-0.484 2.733-1.323l15.233-15.677c0.111-0.108 0.217-0.22 0.317-0.339s0.206-0.258 0.317-0.419c0.111-0.161 0.2-0.333 0.267-0.516s0.111-0.366 0.133-0.548-0.011-0.371-0.1-0.565c-0.089-0.194-0.222-0.376-0.4-0.548-0.422-0.43-0.833-0.624-1.233-0.581-0.422 0.043-0.9 0.312-1.433 0.806l-11.467 11.806c-0.133 0.129-0.289 0.22-0.467 0.274s-0.361 0.059-0.55 0.016-0.35-0.129-0.483-0.258c-0.222-0.193-0.333-0.43-0.333-0.71s0.1-0.527 0.3-0.742l11.467-11.839c0.911-0.86 1.833-1.333 2.767-1.419 1.067-0.086 2.044 0.301 2.933 1.161 0.844 0.796 1.217 1.731 1.117 2.806s-0.639 2.086-1.617 3.032l-15.233 15.71c-1.244 1.204-2.633 1.85-4.167 1.936-0.044 0-0.094 0.005-0.15 0.016s-0.106 0.016-0.15 0.016z"></path>
</symbol>
<symbol id="icon-icon-send" viewBox="0 0 32 32">
<path fill="#fff" style="fill: var(--color2, #fff)" d="M32 0l-32 18 10.227 3.788 15.773-14.788-11.998 16.186 0.010 0.004-0.012-0.004v8.814l5.735-6.691 7.265 2.691 5-28z"></path>
</symbol>
</defs>
</svg>